<svg xmlns="http://www.w3.org/2000/svg" viewBox="0 0 960 778" width="960" height="778" font-family="system-ui, -apple-system, 'Segoe UI', Roboto, Helvetica, sans-serif" xmlns:c2pa="http://c2pa.org/manifest"><metadata><c2pa:manifest>AAAWgmp1bWIAAAAeanVtZGMycGEAEQAQgAAAqgA4m3EDYzJwYQAAABZcanVtYgAAAEdqdW1kYzJtYQARABCAAACqADibcQN1cm46YzJwYTozNzBjOWQyNS05MjIxLTQ4MDEtOTRlNy04MmVhMGEzNjRlMzUAAAADl2p1bWIAAAApanVtZGMyYXMAEQAQgAAAqgA4m3EDYzJwYS5hc3NlcnRpb25zAAAAALxqdW1iAAAARGp1bWRjYm9yABEAEIAAAKoAOJtxE2MycGEuaW5ncmVkaWVudC52MwAAAAAYYzJzaBnCqUwF662kT3+xbIbzh+QAAABwY2JvcqNpZGM6Zm9ybWF0bWltYWdlL3N2Zyt4bWxqaW5zdGFuY2VJRHgseG1wOmlpZDplNjBlZDI2OC1kN2YzLTQ4NDUtYjMzMS0wNGFhNWE1NDVmOGJscmVsYXRpb25zaGlwaHBhcmVudE9mAAAB4mp1bWIAAABBanVtZGNib3IAEQAQgAAAqgA4m3ETYzJwYS5hY3Rpb25zLnYyAAAAABhjMnNoqWx2e5AFixAXgoEZ/3zWBAAAAZljYm9yomdhY3Rpb25zgqJmYWN0aW9ua2MycGEub3BlbmVkanBhcmFtZXRlcnOha2luZ3JlZGllbnRzgaJjdXJseC1zZWxmI2p1bWJmPWMycGEuYXNzZXJ0aW9ucy9jMnBhLmluZ3JlZGllbnQudjNkaGFzaFggt2OTFU/zhEN8zHW0GyxlXoEdaVQGlBZQ6vltS95qvXmkZmFjdGlvbngdY29tLmFudGhyb3BpYy5jbGF1ZGUucHJvdmlkZWRqcGFyYW1ldGVyc6F4H2NvbS5hbnRocm9waWMub3JpZ2luLWNvbmZpZGVuY2VndW5rbm93bmtkZXNjcmlwdGlvbnhmQ2xhdWRlIHByb3ZpZGVkIHRoaXMgZmlsZSBhdCB0aGUgcmVxdWVzdCBvZiBhIHVzZXIgYW5kIG1heSBoYXZlIGNyZWF0ZWQgb3IgbW9kaWZpZWQgdGhlIGZpbGUgY29udGVudHMubXNvZnR3YXJlQWdlbnShZG5hbWVmQ2xhdWRlcmFsbEFjdGlvbnNJbmNsdWRlZPUAAADIanVtYgAAAEBqdW1kY2JvcgARABCAAACqADibcRNjMnBhLmhhc2guZGF0YQAAAAAYYzJzaOddYbbmkO1TiQPZwvi48JYAAACAY2JvcqVjYWxnZnNoYTI1NmNwYWRNAAAAAAAAAAAAAAAAAGRoYXNoWCCBEf/G+TN7vOgsRUcSsXPMTlVR6javqGQLPq09fn1gIWRuYW1lbmp1bWJmIG1hbmlmZXN0amV4Y2x1c2lvbnOBomVzdGFydBjoZmxlbmd0aBkeBAAAAj5qdW1iAAAAJ2p1bWRjMmNsABEAEIAAAKoAOJtxA2MycGEuY2xhaW0udjIAAAACD2Nib3KlY2FsZ2ZzaGEyNTZpc2lnbmF0dXJleE1zZWxmI2p1bWJmPS9jMnBhL3VybjpjMnBhOjM3MGM5ZDI1LTkyMjEtNDgwMS05NGU3LTgyZWEwYTM2NGUzNS9jMnBhLnNpZ25hdHVyZWppbnN0YW5jZUlEeCx4bXA6aWlkOjFiYTM1MzQ2LTNhMTgtNGE5YS05MjM3LWUwNzAxNDY1NGU5OHJjcmVhdGVkX2Fzc2VydGlvbnODomN1cmx4LXNlbGYjanVtYmY9YzJwYS5hc3NlcnRpb25zL2MycGEuaW5ncmVkaWVudC52M2RoYXNoWCC3Y5MVT/OEQ3zMdbQbLGVegR1pVAaUFlDq+W1L3mq9eaJjdXJseCpzZWxmI2p1bWJmPWMycGEuYXNzZXJ0aW9ucy9jMnBhLmFjdGlvbnMudjJkaGFzaFggIq/MX1tDXE9g+PjMZzMlAMpc4wDQFOWIdcIOvx37oq6iY3VybHgpc2VsZiNqdW1iZj1jMnBhLmFzc2VydGlvbnMvYzJwYS5oYXNoLmRhdGFkaGFzaFggCJYcGPU9265lklBF6/vCSxG3sOcJCMDogeBjPs7rukN0Y2xhaW1fZ2VuZXJhdG9yX2luZm+jZG5hbWVvQW50aHJvcGljIEZpbGVzZ3ZlcnNpb25lMS4wLjBrc3BlY1ZlcnNpb25lMi40LjAAABA4anVtYgAAAChqdW1kYzJjcwARABCAAACqADibcQNjMnBhLnNpZ25hdHVyZQAAABAIY2JvctKEWQISogEmGCFZAgowggIGMIIBjaADAgECAhRA5aAK7sI50L64g/oGQgU9Z1UTADAKBggqhkjOPQQDAzBJMRcwFQYDVQQKEw5BbnRocm9waWMsIFBCQzEuMCwGA1UEAxMlQW50aHJvcGljIENvbnRlbnQgQ3JlZGVudGlhbHMgUm9vdCBDQTAeFw0yNjA4MDcxODQzNTZaFw0yODA4MDYxOTQzNTZaMEQxFzAVBgNVBAoTDkFudGhyb3BpYywgUEJDMSkwJwYDVQQDEyBBbnRocm9waWMgQ2xhdWRlIENvbnRlbnQgU2lnbmluZzBZMBMGByqGSM49AgEGCCqGSM49AwEHA0IABJh6CmvLUBgFFNU0vUKlOVtE6djd17L5SuwX0LemFisBM3dkd/3cyjxFA3Qo5S46fX0/ihY0VZ7mfb9KF703t5OjWDBWMA4GA1UdDwEB/wQEAwIHgDAVBgNVHSUEDjAMBgorBgEEAYPoXgIBMAwGA1UdEwEB/wQCMAAwHwYDVR0jBBgwFoAUzlHiBIFOZFsj+OPEz5o+nMHXXMIwCgYIKoZIzj0EAwMDZwAwZAIwMXMdFJ4BetLLVY7ORuE9noqbbAZOZn/aArXyTwFAZfKrPzxF2vPoJNf1+UCdg1XGAjBwX1zd9WGqYkqmL5SFqw1QySjr1zJfpJM9+1rdDwSPLMOPOjKuiXjoU/pUUeG9RwmhY3BhZFkNngAAAAAAAAAAAAAAAAAAAAAAAAAAAAAAAAAAAAAAAAAAAAAAAAAAAAAAAAAAAAAAAAAAAAAAAAAAAAAAAAAAAAAAAAAAAAAAAAAAAAAAAAAAAAAAAAAAAAAAAAAAAAAAAAAAAAAAAAAAAAAAAAAAAAAAAAAAAAAAAAAAAAAAAAAAAAAAAAAAAAAAAAAAAAAAAAAAAAAAAAAAAAAAAAAAAAAAAAAAAAAAAAAAAAAAAAAAAAAAAAAAAAAAAAAAAAAAAAAAAAAAAAAAAAAAAAAAAAAAAAAAAAAAAAAAAAAAAAAAAAAAAAAAAAAAAAAAAAAAAAAAAAAAAAAAAAAAAAAAAAAAAAAAAAAAAAAAAAAAAAAAAAAAAAAAAAAAAAAAAAAAAAAAAAAAAAAAAAAAAAAAAAAAAAAAAAAAAAAAAAAAAAAAAAAAAAAAAAAAAAAAAAAAAAAAAAAAAAAAAAAAAAAAAAAAAAAAAAAAAAAAAAAAAAAAAAAAAAAAAAAAAAAAAAAAAAAAAAAAAAAAAAAAAAAAAAAAAAAAAAAAAAAAAAAAAAAAAAAAAAAAAAAAAAAAAAAAAAAAAAAAAAAAAAAAAAAAAAAAAAAAAAAAAAAAAAAAAAAAAAAAAAAAAAAAAAAAAAAAAAAAAAAAAAAAAAAAAAAAAAAAAAAAAAAAAAAAAAAAAAAAAAAAAAAAAAAAAAAAAAAAAAAAAAAAAAAAAAAAAAAAAAAAAAAAAAAAAAAAAAAAAAAAAAAAAAAAAAAAAAAAAAAAAAAAAAAAAAAAAAAAAAAAAAAAAAAAAAAAAAAAAAAAAAAAAAAAAAAAAAAAAAAAAAAAAAAAAAAAAAAAAAAAAAAAAAAAAAAAAAAAAAAAAAAAAAAAAAAAAAAAAAAAAAAAAAAAAAAAAAAAAAAAAAAAAAAAAAAAAAAAAAAAAAAAAAAAAAAAAAAAAAAAAAAAAAAAAAAAAAAAAAAAAAAAAAAAAAAAAAAAAAAAAAAAAAAAAAAAAAAAAAAAAAAAAAAAAAAAAAAAAAAAAAAAAAAAAAAAAAAAAAAAAAAAAAAAAAAAAAAAAAAAAAAAAAAAAAAAAAAAAAAAAAAAAAAAAAAAAAAAAAAAAAAAAAAAAAAAAAAAAAAAAAAAAAAAAAAAAAAAAAAAAAAAAAAAAAAAAAAAAAAAAAAAAAAAAAAAAAAAAAAAAAAAAAAAAAAAAAAAAAAAAAAAAAAAAAAAAAAAAAAAAAAAAAAAAAAAAAAAAAAAAAAAAAAAAAAAAAAAAAAAAAAAAAAAAAAAAAAAAAAAAAAAAAAAAAAAAAAAAAAAAAAAAAAAAAAAAAAAAAAAAAAAAAAAAAAAAAAAAAAAAAAAAAAAAAAAAAAAAAAAAAAAAAAAAAAAAAAAAAAAAAAAAAAAAAAAAAAAAAAAAAAAAAAAAAAAAAAAAAAAAAAAAAAAAAAAAAAAAAAAAAAAAAAAAAAAAAAAAAAAAAAAAAAAAAAAAAAAAAAAAAAAAAAAAAAAAAAAAAAAAAAAAAAAAAAAAAAAAAAAAAAAAAAAAAAAAAAAAAAAAAAAAAAAAAAAAAAAAAAAAAAAAAAAAAAAAAAAAAAAAAAAAAAAAAAAAAAAAAAAAAAAAAAAAAAAAAAAAAAAAAAAAAAAAAAAAAAAAAAAAAAAAAAAAAAAAAAAAAAAAAAAAAAAAAAAAAAAAAAAAAAAAAAAAAAAAAAAAAAAAAAAAAAAAAAAAAAAAAAAAAAAAAAAAAAAAAAAAAAAAAAAAAAAAAAAAAAAAAAAAAAAAAAAAAAAAAAAAAAAAAAAAAAAAAAAAAAAAAAAAAAAAAAAAAAAAAAAAAAAAAAAAAAAAAAAAAAAAAAAAAAAAAAAAAAAAAAAAAAAAAAAAAAAAAAAAAAAAAAAAAAAAAAAAAAAAAAAAAAAAAAAAAAAAAAAAAAAAAAAAAAAAAAAAAAAAAAAAAAAAAAAAAAAAAAAAAAAAAAAAAAAAAAAAAAAAAAAAAAAAAAAAAAAAAAAAAAAAAAAAAAAAAAAAAAAAAAAAAAAAAAAAAAAAAAAAAAAAAAAAAAAAAAAAAAAAAAAAAAAAAAAAAAAAAAAAAAAAAAAAAAAAAAAAAAAAAAAAAAAAAAAAAAAAAAAAAAAAAAAAAAAAAAAAAAAAAAAAAAAAAAAAAAAAAAAAAAAAAAAAAAAAAAAAAAAAAAAAAAAAAAAAAAAAAAAAAAAAAAAAAAAAAAAAAAAAAAAAAAAAAAAAAAAAAAAAAAAAAAAAAAAAAAAAAAAAAAAAAAAAAAAAAAAAAAAAAAAAAAAAAAAAAAAAAAAAAAAAAAAAAAAAAAAAAAAAAAAAAAAAAAAAAAAAAAAAAAAAAAAAAAAAAAAAAAAAAAAAAAAAAAAAAAAAAAAAAAAAAAAAAAAAAAAAAAAAAAAAAAAAAAAAAAAAAAAAAAAAAAAAAAAAAAAAAAAAAAAAAAAAAAAAAAAAAAAAAAAAAAAAAAAAAAAAAAAAAAAAAAAAAAAAAAAAAAAAAAAAAAAAAAAAAAAAAAAAAAAAAAAAAAAAAAAAAAAAAAAAAAAAAAAAAAAAAAAAAAAAAAAAAAAAAAAAAAAAAAAAAAAAAAAAAAAAAAAAAAAAAAAAAAAAAAAAAAAAAAAAAAAAAAAAAAAAAAAAAAAAAAAAAAAAAAAAAAAAAAAAAAAAAAAAAAAAAAAAAAAAAAAAAAAAAAAAAAAAAAAAAAAAAAAAAAAAAAAAAAAAAAAAAAAAAAAAAAAAAAAAAAAAAAAAAAAAAAAAAAAAAAAAAAAAAAAAAAAAAAAAAAAAAAAAAAAAAAAAAAAAAAAAAAAAAAAAAAAAAAAAAAAAAAAAAAAAAAAAAAAAAAAAAAAAAAAAAAAAAAAAAAAAAAAAAAAAAAAAAAAAAAAAAAAAAAAAAAAAAAAAAAAAAAAAAAAAAAAAAAAAAAAAAAAAAAAAAAAAAAAAAAAAAAAAAAAAAAAAAAAAAAAAAAAAAAAAAAAAAAAAAAAAAAAAAAAAAAAAAAAAAAAAAAAAAAAAAAAAAAAAAAAAAAAAAAAAAAAAAAAAAAAAAAAAAAAAAAAAAAAAAAAAAAAAAAAAAAAAAAAAAAAAAAAAAAAAAAAAAAAAAAAAAAAAAAAAAAAAAAAAAAAAAAAAAAAAAAAAAAAAAAAAAAAAAAAAAAAAAAAAAAAAAAAAAAAAAAAAAAAAAAAAAAAAAAAAAAAAAAAAAAAAAAAAAAAAAAAAAAAAAAAAAAAAAAAAAAAAAAAAAAAAAAAAAAAAAAAAAAAAAAAAAAAAAAAAAAAAAAAAAAAAAAAAAAAAAAAAAAAAAAAAAAAAAAAAAAAAAAAAAAAAAAAAAAAAAAAAAAAAAAAAAAAAAAAAAAAAAAAAAAAAAAAAAAAAAAAAAAAAAAAAAAAAAAAAAAAAAAAAAAAAAAAAAAAAAAAAAAAAAAAAAAAAAAAAAAAAAAAAAAAAAAAAAAAAAAAAAAAAAAAAAAAAAAAAAAAAAAAAAAAAAAAAAAAAAAAAAAAAAAAAAAAAAAAAAAAAAAAAAAAAAAAAAAAAAAAAAAAAAAAAAAAAAAAAAAAAAAAAAAAAAAAAAAAAAAAAAAAAAAAAAAAAAAAAAAAAAAAAAAAAAAAAAAAAAAAAAAAAAAAAAAAAAAAAAAAAAAAAAAAAAAAAAAAAAAAAAAAAAAAAAAAAAAAAAAAAAAAAAAAAAAAAAAAAAAAAAAAAAAAAAAAAAAAAAAAAAAAAAAAAAAAAAAAAAAAAAAAAAAAAAAAAAAAAAAAAAAAAAAAAAAAAAAAAAAAAAAAAAAAAAAAAAAAAAAAAAAAAAAAAAAAAAAAAAAAAAAAAAAAAAAAAAAAAAAAAAAAAAAAAAAAAAAAAAAAAAAAAAAAAAAAAAAAAAAAAAAAAAAAAAAAAAAAAAAAAAAAAAAAAAAAAAAAAAAAAAAAAAAAAAAAAAAAAAAAAAAAAAAAAAAAAAAAAAAAAAAAAAAAAAAAAAAAAAAAAAAAAAAAAAAAAAAAAAAAAAAAAAAAAAAAAAAAAAAAAAAAAAAAAAAAAAAAAAAAAAAAAAAAAAAAAAAAAAAAAAAAAAAAAAAAAAAAAAAAAAAAAAAAAAAAAAAAAAAAAAAAAAAAAAAAAAAAAAAAAAAAAAAAAAAAAAAAAAAAAAAAAAAAAAAAAAAAAAAAAAAAAAAAAAAAAAAAAAAAAAAAAAAAAAAAAAAAAAAAAAAAAAAAAAAAAAAAAAAAAAAAAAAAAAAAAAAAAAAAAAAAAAAAAAAAAAAAAAAAAAAAAAAAAAAAAAAAAAAAAAAAAAAAAAAAAAAAAAAAAAAAAAAAAAAAAAAAAAAAAAAAAAAAAAAAAAAAAAAAAAAAAAAAAAAAAAAAAAAAAAAAAAAAAAAAAAAAAAAAAAAAAAAAAAAAAAAAAAAAAAAAAAAAAAAAAAAAAAAAAAAAAAAAAAAAAAAAAAAAAAAAAAAAAAAAAAAAAAAAAAAAAAAAAAAAAAAAAAAAAAAAAAAAAAAAAAAAAAAAAAAAAAAAAAAAAAAAAAAAAAAAAAAAAAAAAAAAAAAAAAAAAAAAAAAAAAAAAAAAAAAAAAAAAAAAAAAAAAAAAAAAAAAAAAAAAAAAAAAAAAAAAAAAAAAAAAAAAAAAAAAAAAAAAAAAAAAAAAAAAAAAAAAAAPZYQF+FdGtFszEi4LhKN+AjKNtplSspkoeon+fkHr3KBfile55gT3UTbhuOcFAGqUnkYWxyrRZgaUU8CyJXcjPhgxE=</c2pa:manifest></metadata>
<defs><linearGradient id="bg" x1="0" y1="0" x2="0" y2="1"><stop offset="0%" stop-color="#0f172a"/><stop offset="100%" stop-color="#1e293b"/></linearGradient></defs>
<rect width="960" height="778" rx="12" fill="url(#bg)" stroke="#334155" stroke-width="1.5"/>
<text x="480" y="36" text-anchor="middle" fill="#f8fafc" font-size="18" font-weight="700">Mode freq[1:0] = 01:  clkf = 2 Hz,  LED0 blinks at 1 Hz</text>
<text x="480" y="57" text-anchor="middle" fill="#94a3b8" font-size="12">limit = 24,999,999  |  clkf toggles every 25,000,000 clk cycles (250 ms)  |  count increments on each rising edge of clkf</text>
<rect x="20" y="76" width="920" height="326" rx="8" fill="#1e293b" opacity="0.7" stroke="#334155"/>
<text x="36" y="100" fill="#f8fafc" font-size="13" font-weight="700">A) Zoom on the 100 MHz clock  (1 cell = 1 clk cycle = 10 ns)</text>
<text x="36" y="139.0" fill="#cbd5e1" font-size="12" font-weight="700">clk (100 MHz)</text>
<text x="36" y="183.0" fill="#cbd5e1" font-size="12" font-weight="700">countr[25:0]</text>
<text x="36" y="227.0" fill="#cbd5e1" font-size="12" font-weight="700">countr = limit</text>
<text x="36" y="271.0" fill="#cbd5e1" font-size="12" font-weight="700">clkf</text>
<text x="36" y="315.0" fill="#cbd5e1" font-size="12" font-weight="700">count[3:0]</text>
<path d="M180,148 L180,122 L215.0,122 L215.0,148 L250,148" fill="none" stroke="#e2e8f0" stroke-width="2"/>
<rect x="180" y="166" width="70" height="26" rx="4" fill="#0f172a" stroke="#475569" stroke-width="1.5"/>
<text x="215.0" y="183.0" text-anchor="middle" fill="#f1f5f9" font-size="10.5" font-weight="600">0</text>
<rect x="180" y="298" width="70" height="26" rx="4" fill="#0f172a" stroke="#475569" stroke-width="1.5"/>
<text x="215.0" y="315.0" text-anchor="middle" fill="#f1f5f9" font-size="11" font-weight="700">N</text>
<path d="M250,148 L250,122 L285.0,122 L285.0,148 L320,148" fill="none" stroke="#e2e8f0" stroke-width="2"/>
<rect x="250" y="166" width="70" height="26" rx="4" fill="#0f172a" stroke="#475569" stroke-width="1.5"/>
<text x="285.0" y="183.0" text-anchor="middle" fill="#f1f5f9" font-size="10.5" font-weight="600">1</text>
<rect x="250" y="298" width="70" height="26" rx="4" fill="#0f172a" stroke="#475569" stroke-width="1.5"/>
<text x="285.0" y="315.0" text-anchor="middle" fill="#f1f5f9" font-size="11" font-weight="700">N</text>
<path d="M320,148 L320,122 L355.0,122 L355.0,148 L390,148" fill="none" stroke="#e2e8f0" stroke-width="2"/>
<rect x="320" y="166" width="70" height="26" rx="4" fill="#0f172a" stroke="#475569" stroke-width="1.5"/>
<text x="355.0" y="183.0" text-anchor="middle" fill="#f1f5f9" font-size="10.5" font-weight="600">2</text>
<rect x="320" y="298" width="70" height="26" rx="4" fill="#0f172a" stroke="#475569" stroke-width="1.5"/>
<text x="355.0" y="315.0" text-anchor="middle" fill="#f1f5f9" font-size="11" font-weight="700">N</text>
<text x="425.0" y="140.0" text-anchor="middle" fill="#64748b" font-size="14" font-weight="700">• • •</text>
<text x="425.0" y="184.0" text-anchor="middle" fill="#64748b" font-size="14" font-weight="700">• • •</text>
<text x="425.0" y="228.0" text-anchor="middle" fill="#64748b" font-size="14" font-weight="700">• • •</text>
<text x="425.0" y="272.0" text-anchor="middle" fill="#64748b" font-size="14" font-weight="700">• • •</text>
<text x="425.0" y="316.0" text-anchor="middle" fill="#64748b" font-size="14" font-weight="700">• • •</text>
<path d="M460,148 L460,122 L495.0,122 L495.0,148 L530,148" fill="none" stroke="#e2e8f0" stroke-width="2"/>
<rect x="460" y="166" width="70" height="26" rx="4" fill="#0f172a" stroke="#475569" stroke-width="1.5"/>
<text x="495.0" y="183.0" text-anchor="middle" fill="#f1f5f9" font-size="10.5" font-weight="600">24,999,997</text>
<rect x="460" y="298" width="70" height="26" rx="4" fill="#0f172a" stroke="#475569" stroke-width="1.5"/>
<text x="495.0" y="315.0" text-anchor="middle" fill="#f1f5f9" font-size="11" font-weight="700">N</text>
<path d="M530,148 L530,122 L565.0,122 L565.0,148 L600,148" fill="none" stroke="#e2e8f0" stroke-width="2"/>
<rect x="530" y="166" width="70" height="26" rx="4" fill="#0f172a" stroke="#475569" stroke-width="1.5"/>
<text x="565.0" y="183.0" text-anchor="middle" fill="#f1f5f9" font-size="10.5" font-weight="600">24,999,998</text>
<rect x="530" y="298" width="70" height="26" rx="4" fill="#0f172a" stroke="#475569" stroke-width="1.5"/>
<text x="565.0" y="315.0" text-anchor="middle" fill="#f1f5f9" font-size="11" font-weight="700">N</text>
<path d="M600,148 L600,122 L635.0,122 L635.0,148 L670,148" fill="none" stroke="#e2e8f0" stroke-width="2"/>
<rect x="600" y="166" width="70" height="26" rx="4" fill="#312e81" stroke="#6366f1" stroke-width="1.5"/>
<text x="635.0" y="183.0" text-anchor="middle" fill="#818cf8" font-size="10.5" font-weight="600">24,999,999</text>
<rect x="600" y="298" width="70" height="26" rx="4" fill="#0f172a" stroke="#475569" stroke-width="1.5"/>
<text x="635.0" y="315.0" text-anchor="middle" fill="#f1f5f9" font-size="11" font-weight="700">N</text>
<path d="M670,148 L670,122 L705.0,122 L705.0,148 L740,148" fill="none" stroke="#e2e8f0" stroke-width="2"/>
<rect x="670" y="166" width="70" height="26" rx="4" fill="#0f172a" stroke="#475569" stroke-width="1.5"/>
<text x="705.0" y="183.0" text-anchor="middle" fill="#f1f5f9" font-size="10.5" font-weight="600">0</text>
<rect x="670" y="298" width="70" height="26" rx="4" fill="#064e3b" stroke="#34d399" stroke-width="1.5"/>
<text x="705.0" y="315.0" text-anchor="middle" fill="#34d399" font-size="11" font-weight="700">N + 1</text>
<path d="M740,148 L740,122 L775.0,122 L775.0,148 L810,148" fill="none" stroke="#e2e8f0" stroke-width="2"/>
<rect x="740" y="166" width="70" height="26" rx="4" fill="#0f172a" stroke="#475569" stroke-width="1.5"/>
<text x="775.0" y="183.0" text-anchor="middle" fill="#f1f5f9" font-size="10.5" font-weight="600">1</text>
<rect x="740" y="298" width="70" height="26" rx="4" fill="#064e3b" stroke="#34d399" stroke-width="1.5"/>
<text x="775.0" y="315.0" text-anchor="middle" fill="#34d399" font-size="11" font-weight="700">N + 1</text>
<path d="M180,236 L390,236" fill="none" stroke="#fb923c" stroke-width="2.5"/>
<path d="M460,236 L600,236 L600,210 L670,210 L670,236 L810,236" fill="none" stroke="#fb923c" stroke-width="2.5" stroke-linejoin="miter"/>
<path d="M180,280 L390,280" fill="none" stroke="#a78bfa" stroke-width="2.5"/>
<path d="M460,280 L670,280 L670,254 L810,254" fill="none" stroke="#a78bfa" stroke-width="2.5" stroke-linejoin="miter"/>
<text x="425.0" y="354" text-anchor="middle" fill="#94a3b8" font-size="11">24,999,994 more cycles</text>
<text x="635.0" y="354" text-anchor="middle" fill="#fb923c" font-size="11" font-weight="700">terminal count</text>
<text x="670" y="372" text-anchor="middle" fill="#34d399" font-size="11" font-weight="700">clkf rises → count + 1, countr → 0</text>
<text x="670" y="388" text-anchor="middle" fill="#94a3b8" font-size="11">next terminal count: clkf falls, count unchanged</text>
<rect x="20" y="416" width="920" height="346" rx="8" fill="#1e293b" opacity="0.7" stroke="#334155"/>
<text x="36" y="440" fill="#f8fafc" font-size="13" font-weight="700">B) Resulting waveforms over 4 s of real time  (clkf = 2 Hz)</text>
<line x1="180.0" y1="452" x2="180.0" y2="718" stroke="#334155" stroke-dasharray="4,4" stroke-width="1"/>
<text x="180.0" y="736" text-anchor="middle" fill="#94a3b8" font-size="11" font-weight="600">0 s</text>
<line x1="362.5" y1="452" x2="362.5" y2="718" stroke="#334155" stroke-dasharray="4,4" stroke-width="1"/>
<text x="362.5" y="736" text-anchor="middle" fill="#94a3b8" font-size="11" font-weight="600">1 s</text>
<line x1="545.0" y1="452" x2="545.0" y2="718" stroke="#334155" stroke-dasharray="4,4" stroke-width="1"/>
<text x="545.0" y="736" text-anchor="middle" fill="#94a3b8" font-size="11" font-weight="600">2 s</text>
<line x1="727.5" y1="452" x2="727.5" y2="718" stroke="#334155" stroke-dasharray="4,4" stroke-width="1"/>
<text x="727.5" y="736" text-anchor="middle" fill="#94a3b8" font-size="11" font-weight="600">3 s</text>
<line x1="910.0" y1="452" x2="910.0" y2="718" stroke="#334155" stroke-dasharray="4,4" stroke-width="1"/>
<text x="910.0" y="736" text-anchor="middle" fill="#94a3b8" font-size="11" font-weight="600">4 s</text>
<text x="36" y="474" fill="#a78bfa" font-size="12" font-weight="700">clkf</text>
<text x="36" y="488" fill="#64748b" font-size="10">2 Hz</text>
<path d="M180.0,488 L180.0,488 L225.6,488 L225.6,462 L271.2,462 L271.2,488 L316.9,488 L316.9,462 L362.5,462 L362.5,488 L408.1,488 L408.1,462 L453.8,462 L453.8,488 L499.4,488 L499.4,462 L545.0,462 L545.0,488 L590.6,488 L590.6,462 L636.2,462 L636.2,488 L681.9,488 L681.9,462 L727.5,462 L727.5,488 L773.1,488 L773.1,462 L818.8,462 L818.8,488 L864.4,488 L864.4,462 L910.0,462" fill="none" stroke="#a78bfa" stroke-width="2.5"/>
<text x="36" y="526" fill="#38bdf8" font-size="12" font-weight="700">count[0] (LED0)</text>
<text x="36" y="540" fill="#64748b" font-size="10">1 Hz</text>
<path d="M180.0,540 L180.0,540 L225.6,540 L225.6,514 L271.2,514 L271.2,514 L316.9,514 L316.9,540 L362.5,540 L362.5,540 L408.1,540 L408.1,514 L453.8,514 L453.8,514 L499.4,514 L499.4,540 L545.0,540 L545.0,540 L590.6,540 L590.6,514 L636.2,514 L636.2,514 L681.9,514 L681.9,540 L727.5,540 L727.5,540 L773.1,540 L773.1,514 L818.8,514 L818.8,514 L864.4,514 L864.4,540 L910.0,540" fill="none" stroke="#38bdf8" stroke-width="2.5"/>
<text x="36" y="578" fill="#4ade80" font-size="12" font-weight="700">count[1] (LED1)</text>
<text x="36" y="592" fill="#64748b" font-size="10">0.5 Hz</text>
<path d="M180.0,592 L180.0,592 L225.6,592 L225.6,592 L271.2,592 L271.2,592 L316.9,592 L316.9,566 L362.5,566 L362.5,566 L408.1,566 L408.1,566 L453.8,566 L453.8,566 L499.4,566 L499.4,592 L545.0,592 L545.0,592 L590.6,592 L590.6,592 L636.2,592 L636.2,592 L681.9,592 L681.9,566 L727.5,566 L727.5,566 L773.1,566 L773.1,566 L818.8,566 L818.8,566 L864.4,566 L864.4,592 L910.0,592" fill="none" stroke="#4ade80" stroke-width="2.5"/>
<text x="36" y="630" fill="#f472b6" font-size="12" font-weight="700">count[2] (LED2)</text>
<text x="36" y="644" fill="#64748b" font-size="10">0.25 Hz</text>
<path d="M180.0,644 L180.0,644 L225.6,644 L225.6,644 L271.2,644 L271.2,644 L316.9,644 L316.9,644 L362.5,644 L362.5,644 L408.1,644 L408.1,644 L453.8,644 L453.8,644 L499.4,644 L499.4,618 L545.0,618 L545.0,618 L590.6,618 L590.6,618 L636.2,618 L636.2,618 L681.9,618 L681.9,618 L727.5,618 L727.5,618 L773.1,618 L773.1,618 L818.8,618 L818.8,618 L864.4,618 L864.4,644 L910.0,644" fill="none" stroke="#f472b6" stroke-width="2.5"/>
<text x="36" y="682" fill="#fbbf24" font-size="12" font-weight="700">count[3] (LED3)</text>
<text x="36" y="696" fill="#64748b" font-size="10">0.125 Hz</text>
<path d="M180.0,696 L180.0,696 L225.6,696 L225.6,696 L271.2,696 L271.2,696 L316.9,696 L316.9,696 L362.5,696 L362.5,696 L408.1,696 L408.1,696 L453.8,696 L453.8,696 L499.4,696 L499.4,696 L545.0,696 L545.0,696 L590.6,696 L590.6,696 L636.2,696 L636.2,696 L681.9,696 L681.9,696 L727.5,696 L727.5,696 L773.1,696 L773.1,696 L818.8,696 L818.8,696 L864.4,696 L864.4,670 L910.0,670" fill="none" stroke="#fbbf24" stroke-width="2.5"/>
</svg>